<svg id="Layer_1" data-name="Layer 1" xmlns="http://www.w3.org/2000/svg" width="0.22in" height="0.22in" viewBox="0 0 15.59 15.83"><defs><style>.cls-1{fill:#3a3a3a;}</style></defs><title>magnifySearchIconHeader</title><path class="cls-1" d="M6.71,13.19A6.59,6.59,0,1,1,13.3,6.6,6.59,6.59,0,0,1,6.71,13.19Zm0-10.29a3.7,3.7,0,1,0,3.7,3.7h0A3.7,3.7,0,0,0,6.72,2.89h0Z" transform="translate(-0.12 -0.01)"/><path class="cls-1" d="M14.27,15.84a1.44,1.44,0,0,1-1.05-.46L9.3,11.22a1.45,1.45,0,0,1,2.11-2l3.91,4.18a1.45,1.45,0,0,1-1.05,2.44Z" transform="translate(-0.12 -0.01)"/></svg>